<?xml version="1.0" encoding="UTF-8"?>
<svg width="33.74mm" height="33.74mm" version="1.1" viewBox="0 0 33.74 33.74" xml:space="preserve" xmlns="http://www.w3.org/2000/svg"><g transform="translate(-25.261 -186.85)"><g transform="translate(.38463 -.04537)" stroke-width=".84684"><path d="m42.782 189.89v1.3601c6.551 0.43451 11.712 5.0876 12.44 11.176h1.4371c-0.58402-6.5017-6.1885-12.066-13.877-12.536zm0 2.7583v1.2078c4.9826 0.40006 8.9178 3.7485 9.4774 8.5699h1.5303c-0.62156-5.5174-5.2125-9.3755-11.008-9.7777zm0 2.4161v1.4498c3.3044 0.41547 5.8424 2.8309 6.4189 5.9118h1.4358c-0.57158-3.9059-3.7555-6.9294-7.8548-7.3616z" fill="#000000"/><path d="m41.729 189.85c-2.151 0-4.1348 0.37065-5.9512 1.1116-1.8164 0.71699-3.3936 1.7087-4.732 2.9754-1.3384 1.2428-2.39 2.7006-3.1548 4.3735-0.74088 1.6491-1.1115 3.3941-1.1115 5.2343 0 0.59749 0.07192 1.2904 0.21531 2.0791 0.16729 0.76478 0.4181 1.5536 0.7527 2.3662 0.3346 0.78869 0.76474 1.5535 1.2905 2.2944 0.5258 0.74089 1.1592 1.3739 1.9001 1.8997h-4.6961v5.4851h13.444v-6.0225c-0.8126-0.239-1.5535-0.60966-2.2227-1.1116-0.66919-0.5258-1.2551-1.1353-1.757-1.8284-0.478-0.71698-0.8602-1.4938-1.147-2.3303-0.26289-0.86039-0.39429-1.7207-0.39429-2.5811 0-1.0277 0.19132-1.9834 0.57371-2.8677 0.4063-0.88429 0.94387-1.6611 1.6131-2.3303 0.69309-0.66919 1.4939-1.1952 2.4021-1.5776 0.93208-0.38239 1.9358-0.57328 3.0112-0.57328 0.0034 0 0.0068 4.4e-4 0.0097 4.5e-4v-6.5962c-0.01533-4e-5 -0.03015-8.4e-4 -0.04548-8.4e-4zm7.5799 13.524c0.0076 0.14024 0.02016 0.27841 0.02016 0.42142 0 0.86039-0.14338 1.7207-0.43018 2.5811-0.26289 0.83648-0.64509 1.6133-1.147 2.3303-0.47799 0.6931-1.0639 1.3026-1.757 1.8284-0.6692 0.50189-1.4101 0.87255-2.2226 1.1116v6.0225h13.479v-5.4851h-4.6602c0.74089-0.52579 1.3739-1.1588 1.8997-1.8997 0.52579-0.7409 0.94438-1.5057 1.2551-2.2944 0.33459-0.81259 0.57342-1.6014 0.71681-2.3662 0.1673-0.7887 0.2512-1.4816 0.2512-2.0791 0-0.0572-0.0034-0.1136-0.0043-0.17067z" fill="#000000"/></g></g></svg>
