<?xml version="1.0" encoding="UTF-8"?>
<!-- Created with Inkscape (http://www.inkscape.org/) -->
<svg width="154.22mm" height="33.74mm" version="1.1" viewBox="0 0 154.22 33.74" xml:space="preserve" xmlns="http://www.w3.org/2000/svg"><g transform="translate(-25.261 -186.85)"><path d="m102.39 187.78v1.6061c7.7358 0.5131 13.83 6.0078 14.69 13.197h1.6971c-0.68965-7.6776-7.3078-14.249-16.387-14.803zm0 3.2572v1.4263c5.8837 0.47241 10.531 4.4265 11.192 10.12h1.8071c-0.73398-6.5152-6.1553-11.071-12.999-11.546zm0 2.853v1.712c3.9021 0.49061 6.8991 3.3428 7.5799 6.981h1.6955c-0.67496-4.6123-4.4348-8.1826-9.2754-8.693z" fill="#b2e6fa"/><path d="m60.864 203.7q0 2.1167 0.381 3.8523 0.381 1.7357 1.0583 3.0057 0.71967 1.27 1.6933 1.9897 0.97367 0.67734 2.2013 0.67734 1.1853 0 2.159-0.67734 1.016-0.71966 1.6933-1.9897t1.0583-3.0057q0.381-1.7357 0.381-3.8523 0-2.0743-0.381-3.81-0.381-1.778-1.0583-3.0057-0.67733-1.27-1.6933-1.9473-0.97367-0.71967-2.159-0.71967-1.2277 0-2.2013 0.71967-0.97367 0.67733-1.6933 1.9473-0.67733 1.2277-1.0583 3.0057-0.381 1.7357-0.381 3.81zm-8.2127 0q0-3.81 0.97367-6.9003 1.016-3.1327 2.794-5.334 1.8203-2.2013 4.2757-3.3867 2.4977-1.2277 5.5033-1.2277 2.9633 0 5.461 1.2277 2.4977 1.1853 4.2757 3.3867t2.7517 5.334q1.016 3.0903 1.016 6.9003 0 3.81-1.016 6.9427-0.97367 3.0903-2.7517 5.334-1.778 2.2013-4.2757 3.429-2.4977 1.1853-5.461 1.1853-3.0057 0-5.5033-1.1853-2.4553-1.2277-4.2757-3.429-1.778-2.2437-2.794-5.334-0.97367-3.1327-0.97367-6.9427z" fill="#00adef"/><path d="m46.724 194.81h-11.049l-0.55033 3.5137q0.762-0.0847 1.397-0.127 0.635-0.0847 1.3123-0.0847 2.413 0 4.4873 0.84666 2.0743 0.84667 3.556 2.3283 1.4817 1.4817 2.3283 3.556t0.84667 4.5297q0 2.5823-0.97367 4.6567-0.93133 2.0743-2.667 3.556-1.7357 1.4393-4.2333 2.2013-2.4977 0.80433-5.5457 0.80433-2.8787 0-5.5033-0.71967-2.5823-0.67733-4.8683-2.1167l1.2277-7.7893q2.1167 1.8203 4.318 2.794 2.2013 0.93133 4.191 0.93133 2.54 0 4.0217-1.3547 1.4817-1.397 1.4817-3.429 0-2.3707-1.9897-3.81-1.9897-1.4817-5.207-1.4817-1.4393 0-2.9633 0.33866-1.524 0.29634-3.0057 0.97367l2.667-17.145h16.722z" fill="#00adef"/><path d="m101.15 187.74c-2.54 0-4.8826 0.43769-7.0275 1.3126-2.1449 0.84666-4.0073 2.0177-5.5878 3.5135-1.5804 1.4676-2.8222 3.189-3.7254 5.1645-0.87488 1.9473-1.3126 4.0079-1.3126 6.181 0 0.70555 0.08492 1.5238 0.25425 2.4552 0.19755 0.9031 0.49372 1.8346 0.88883 2.7941 0.39511 0.93133 0.90305 1.8345 1.5239 2.7094 0.62089 0.87488 1.3689 1.6224 2.2438 2.2433h-5.5454v6.4771h15.875v-7.1117c-0.95956-0.28222-1.8344-0.71991-2.6246-1.3126-0.79022-0.62089-1.4821-1.3406-2.0748-2.159-0.56445-0.84666-1.0158-1.764-1.3544-2.7518-0.31044-1.016-0.4656-2.0319-0.4656-3.0479 0-1.2136 0.22592-2.3421 0.67747-3.3864 0.47978-1.0442 1.1146-1.9616 1.9048-2.7518 0.81844-0.79022 1.7641-1.4114 2.8365-1.8629 1.1007-0.45155 2.2858-0.67696 3.5558-0.67696 4e-3 0 8e-3 5.1e-4 0.0114 5.2e-4v-7.7892c-0.0181-5e-5 -0.0356-1e-3 -0.0537-1e-3zm8.9509 15.97c9e-3 0.1656 0.0238 0.32876 0.0238 0.49764 0 1.016-0.16931 2.0319-0.50798 3.0479-0.31044 0.98778-0.76177 1.9051-1.3544 2.7518-0.56444 0.81844-1.2564 1.5382-2.0748 2.159-0.79023 0.59267-1.6651 1.0304-2.6246 1.3126v7.1117h15.917v-6.4771h-5.503c0.87489-0.62089 1.6224-1.3684 2.2433-2.2433 0.62089-0.87489 1.1152-1.7781 1.4821-2.7094 0.39511-0.95955 0.67713-1.891 0.84646-2.7941 0.19756-0.93134 0.29663-1.7496 0.29663-2.4552 0-0.0676-4e-3 -0.13415-5e-3 -0.20154z" fill="#00adef"/><path d="m162.56 186.85-16.87 16.87 16.87 16.87 16.87-16.87zm14.19 16.87-6.8472 6.8472c0.14889-0.34733 0.24808-0.74424 0.24808-1.1412 0-1.29-0.8931-2.4312-2.6297-2.7786l-1.2404-0.24807c-0.64503-0.0992-0.89312-0.44655-0.89312-0.89312 0-0.49616 0.49619-0.99233 1.2404-0.99233 1.0916 0 1.4389 0.69464 1.5382 1.0916l1.7862-0.74426c-0.29771-1.042-1.1908-2.1831-3.2747-2.1831-0.79387 0-1.4885 0.24809-2.0839 0.64502 0.69463-0.94272 1.4389-1.8854 2.2328-2.6793 2.332-2.332 3.622-3.0266 3.9198-3.1259zm-7.5418-7.5418c-0.24809 0.14889-1.5877 0.84348-3.9198 3.1259-1.1908 1.1908-2.2328 2.6793-3.2747 4.1678l-1.1412-2.332c0.94272-0.54578 1.3397-1.5877 1.3397-2.5801 0-1.6374-1.1412-2.8778-2.977-2.8778h-2.8282l6.1526-6.1525zm-9.0799 2.4312c0 0.64502-0.44656 1.0916-1.29 1.0916h-1.1908v-2.2328h1.1908c0.84349 0 1.29 0.44656 1.29 1.1412zm-11.759 5.1106 7.1945-7.1945v8.3853h2.0343v-3.4236h1.2404l1.8358 3.8205c-0.54578 0.69464-1.0916 1.3396-1.687 1.935-2.332 2.332-3.7213 3.0266-3.9694 3.1259zm8.1372 8.0876c0.19846-0.0992 1.6374-0.79386 3.9694-3.1259 1.1412-1.1412 2.0839-2.4312 3.0266-3.7213-0.0497 0.24809-0.0992 0.49616-0.0992 0.79387 0 1.3397 0.94272 2.3816 2.4808 2.6793l1.2404 0.24811c0.59541 0.0992 0.99236 0.44654 0.99236 0.9427 0 0.5458-0.49619 0.94273-1.2901 0.94273-1.2404 0-1.7862-0.69462-1.8855-1.5381l-1.8358 0.74428c0.29769 1.2404 1.3893 2.5801 3.6716 2.5801 0.69465 0 1.2404-0.14889 1.7366-0.39691l-5.9044 5.9044z" fill="#b5b9bc" stroke-width=".49617"/></g></svg>
