<?xml version="1.0" encoding="UTF-8"?>
<!DOCTYPE svg PUBLIC "-//W3C//DTD SVG 1.1//EN" "http://www.w3.org/Graphics/SVG/1.1/DTD/svg11.dtd">
<!-- Creator: CorelDRAW (Testversion) -->
<svg xmlns="http://www.w3.org/2000/svg" xml:space="preserve" width="190.526mm" height="88.9353mm" version="1.1" style="shape-rendering:geometricPrecision; text-rendering:geometricPrecision; image-rendering:optimizeQuality; fill-rule:evenodd; clip-rule:evenodd"
viewBox="0 0 19052.62 8893.53"
 xmlns:xlink="http://www.w3.org/1999/xlink"
 xmlns:xodm="http://www.corel.com/coreldraw/odm/2003">
 <defs>
  <style type="text/css">
   <![CDATA[
    .fil0 {fill:#2B2A29}
    .fil1 {fill:#84D0F5}
    .fil2 {fill:#00A0E3}
    .fil4 {fill:#2B2A29;fill-rule:nonzero}
    .fil3 {fill:#00A0E3;fill-rule:nonzero}
   ]]>
  </style>
 </defs>
 <g id="Ebene_x0020_1">
  <metadata id="CorelCorpID_0Corel-Layer"/>
  <path class="fil0" d="M-0 7320.84l942.17 0 135.37 312.26 -1077.54 0 0 -312.26zm2913.59 0l16131.38 0 0 312.26 -16266.77 0 135.39 -312.26z"/>
  <path class="fil0" d="M1927.86 0l1927.93 4446.7 -1927.93 4446.83 -1927.86 -4446.83 1927.86 -4446.7zm457.36 3624.86c0,52.43 -165.91,94.96 -370.59,94.96 -204.67,0 -370.56,-94.96 -370.56,-94.96 0,0 165.89,-94.9 370.56,-94.9 204.68,0 370.59,42.46 370.59,94.9zm0 587.82c0,52.42 -165.91,94.89 -370.59,94.89 -204.67,0 -370.56,-94.89 -370.56,-94.89 0,0 165.89,-94.93 370.56,-94.93 204.68,0 370.59,42.5 370.59,94.93zm0 573.19c0,52.43 -165.91,94.93 -370.59,94.93 -204.67,0 -370.56,-94.93 -370.56,-94.93 0,0 165.89,-94.92 370.56,-94.92 204.68,0 370.59,42.49 370.59,94.92zm-390.03 1457.63l-48.09 97.72 -47.47 0 -47.72 -97.72 143.28 0zm99.13 -201.3l-53.27 108.15 -234.6 0 -52.83 -108.15 340.7 0zm106.5 -216.33l-60.65 123.18 -432.01 0 -60.17 -123.18 552.83 0zm108.22 -219.8l-62.35 126.66 -644.18 0 -61.83 -126.66 768.36 0zm-905 -2689.71l517.97 -445.97 536.15 445.97 -284.71 0 -145.03 -109.24 -0.02 373.4c0,0 -348.39,60.55 -457.34,152.32 -79.14,66.67 -26.76,148.98 -26.76,148.98 0,0 147.24,-123.43 494.08,-130.77 288.64,-6.13 527.48,89.55 530.28,272.97 2.74,183.42 -229.88,258.07 -533.94,267.37 -295.35,9.03 -489.23,-116.79 -489.23,-116.79 0,0 -49.34,105.24 -40.17,175.18 7.4,56.33 53.94,115.69 53.94,115.69 0,0 238.14,-111.98 471.8,-111.98 336.64,0 554.65,92.48 554.81,252.53 0.13,160 -225.37,247.48 -511,258.56 -281.1,10.98 -525.74,-116.79 -525.74,-116.79 0,0 -51.09,43.14 -51.09,116.79 0,71.3 83.68,162.05 83.68,162.05 0,0 189.65,-99 471.25,-99.97 347.25,-1.18 538.88,139.22 537.78,254.02 -1.09,114.73 -180.72,247.35 -534.12,249.83 -283.27,1.98 -467.32,-87.64 -467.32,-87.64 0,0 -15.87,101.46 89.69,155.15 139.92,71.16 368.6,59.87 368.6,59.87l0.53 205.39 380.46 0 -73.67 149.62 -859.73 0 -73.07 -149.62 395.89 0 1.4 -62.51c0,0 -373.1,-7.28 -424.75,-292.54 -26.38,-145.67 52.54,-243.95 52.54,-243.95 0,0 -157.03,-163.69 -142.39,-335.9 14.59,-171.6 109.62,-258.41 109.62,-258.41 0,0 -96.41,-102.49 -96.41,-247.14 0,-144.62 81.8,-301.55 81.8,-301.55 0,0 -56.85,-47.61 -54.74,-186.22 4.85,-325.89 474.81,-391.86 474.81,-391.86l3.06 -236.08 -131.41 109.52 -287.5 -0.28zm1693.88 1460.33c27.18,-0.84 58.85,-12.07 56.3,-47.84 -1.41,-20.04 -0.13,-185.27 -0.13,-222.61 0,-30.22 -16.64,-60.44 -49.49,-60.44 -46.76,0 -101.71,1.82 -101.71,1.82l-0.54 330.62c0,0 50.44,-0.12 95.57,-1.55zm-282.02 625.9l-1.34 -1135.73c0,0 263.08,1.26 316.55,1.26 110.87,0 207.92,63.34 207.92,180.17 0,101.33 2.25,273.26 -0.39,328.66 -5.84,121.57 -23.34,168.1 -94.74,194.37 -0.97,1.75 122.74,432.98 122.74,432.98l-184.36 1.95 -106.03 -430.81 -73.9 -0.37 0.38 429.23 -186.83 -1.71 0 0zm-2054.9 -400.84l104.95 0 -55.41 -455.86 -49.54 455.86zm185.31 -733.63l196.98 1136.18 -208.18 0 -33.73 -187.77 -168.82 0.91 -27.85 186.86 -215.6 0 189.28 -1134.21 267.92 -1.97 0 0zm904.93 -2469.19l98.37 -0.44c19.28,0 31.43,6.08 42.4,15.64 10.98,9.55 12.09,33.41 12.09,42.56 0,9.04 0,588.57 0,597.64 0,9.19 1.8,32.22 -12.13,45.4 -13.92,13.16 -29.74,13.6 -41.3,13.6 -11.52,0 -100.4,-0.35 -100.4,-0.35l0.97 -714.05zm-190.56 -175.01l337.15 -1.71c66.12,0 107.81,24.48 145.42,62.95 37.59,38.52 41.42,134.84 41.42,171.53 0,36.7 0,552.77 0,589.48 0,36.71 6,129.65 -41.76,182.73 -47.73,53.08 -101.83,55.04 -141.42,55.04 -39.62,0 -344.11,-1.37 -344.11,-1.37l3.3 -1058.65zm-14.02 5599.69c0,-115.95 83.16,-202.23 150.2,-202.23 56.46,0 190,0 246.44,0 83.38,0 148.68,85.02 152.27,153.98 2.17,41.8 1.78,164.92 1.78,164.92l-180.07 0 0 -58.63c0,0 2.78,-33.01 -8.69,-48.81 -8.45,-11.59 -24.43,-11.5 -24.43,-11.5l-95.36 -0.19c0,0 -18.25,-2.23 -28.77,7.34 -15.78,14.37 -13.38,60.33 -13.38,60.33l-1.43 477.22c0,0 -2.43,45.92 13.38,60.29 10.51,9.6 28.76,7.35 28.76,7.35l95.38 -0.2c0,0 15.95,0.1 24.38,-11.5 11.52,-15.78 8.72,-48.8 8.72,-48.8l0 -58.63 180.07 0c0,0 0.4,123.15 -1.81,164.9 -3.54,68.98 -68.86,154.02 -152.25,154.02 -56.42,0 -189.99,0 -246.43,0 -67.04,0 -150.23,-86.31 -150.23,-202.27 0,-12.53 1.47,-595.02 1.47,-607.59z"/>
  <g id="_2284308779488">
   <path class="fil1" d="M7970.15 4339.66l164.08 0c-7.41,-1051.43 -805.9,-1914.27 -1829.54,-2023.6l0 165.43c931.45,108.34 1658.06,899.35 1665.46,1858.17z"/>
   <path class="fil1" d="M7642.14 4339.66l164.07 0c-7.42,-868.17 -660.85,-1585.54 -1501.52,-1692.96l0 165.39c750.48,106.13 1330.22,749.48 1337.45,1527.57z"/>
   <path class="fil1" d="M6304.69 2977.9l0 166.58c569.94,102.35 1002.32,597.56 1009.36,1195.18l164.02 0c-7.18,-687.4 -513.1,-1257.28 -1173.38,-1361.76z"/>
  </g>
  <path class="fil2" d="M6084.94 5584.13l-615.15 0 0 -2459.92 615.15 0 0 -819.81 -1414.63 0 0 4099.79 1414.63 0c1057.44,0 1928.98,-801.48 2037.69,-1830.76l-827.08 0c-103.87,574.82 -606.3,1010.7 -1210.61,1010.7z"/>
  <path class="fil3" d="M8229.63 6417.19l880.94 0 284.53 -771.51 1592.26 0 284.53 771.51 880.94 0 -1510.18 -3945.08 -902.83 0 -1510.19 3945.08zm1800.19 -2500.56c71.13,-196.98 76.6,-213.39 87.54,-262.64 32.83,-125.85 54.72,-218.87 76.61,-432.26 16.41,213.39 32.83,306.41 71.13,432.26 10.94,49.25 21.89,76.61 87.55,262.64l372.07 1088.87 -1066.98 0 372.08 -1088.87zm2730.37 2500.56l815.28 0 0 -1291.32c0,-218.86 0,-240.75 -27.36,-410.37 76.6,142.26 158.68,273.58 207.92,344.71l902.83 1356.98 1034.15 0 -1214.72 -1625.09c612.83,-158.68 919.25,-547.17 919.25,-1160 0,-733.2 -519.81,-1159.99 -1417.17,-1159.99l-1220.18 0 0 3945.08zm809.81 -3222.82l432.26 0c180.56,0 246.22,16.42 344.71,93.02 114.91,98.49 169.63,224.34 169.63,404.9 0,372.08 -257.17,601.89 -667.55,601.89l-279.05 0 0 -1099.81zm5482.62 -585.47l-16.41 -5.47 -82.08 -38.3c-306.41,-120.38 -514.34,-164.15 -804.33,-164.15 -1181.89,0 -2084.71,891.88 -2084.71,2057.35 0,1143.58 897.35,2040.94 2035.46,2040.94 196.98,0 377.55,-21.89 547.17,-76.61 10.94,-5.47 16.41,-5.47 21.89,-5.47l279.05 -98.49 98.49 -38.3 0 -930.19c-76.6,71.13 -114.9,103.96 -180.56,142.27 -218.87,142.26 -470.57,218.86 -733.21,218.86 -683.96,0 -1209.24,-541.69 -1209.24,-1263.95 0,-711.32 514.34,-1247.55 1192.83,-1247.55 268.11,0 530.75,82.08 760.56,235.28 54.72,43.78 93.02,71.14 175.09,147.74l0 -973.96z"/>
  <path class="fil4" d="M4654.37 8878.43l211.45 0c64.61,0 102.37,-6.71 142.64,-24.33 95.66,-44.47 151.04,-148.52 151.04,-282.77 0,-132.58 -55.38,-230.75 -156.07,-273.54 -45.31,-19.3 -77.2,-24.34 -162.78,-24.34l-186.28 0 0 604.98zm126.7 -491.7l66.29 0c51.18,0 76.36,5.87 102.37,20.98 49.5,29.36 76.35,86.42 76.35,164.46 0,128.38 -62.09,193.82 -182.91,193.82l-62.1 0 0 -379.26zm885.23 322.21c0,-156.07 -72.16,-243.34 -201.38,-243.34 -122.5,0 -210.6,90.62 -210.6,216.49 0,127.54 85.58,210.6 215.64,210.6 83.91,0 149.35,-37.75 185.44,-106.56l-94.82 -42.79c-24.33,41.11 -51.18,57.06 -91.46,57.06 -55.38,0 -90.62,-34.41 -94.82,-91.46l292 0zm-203.05 -156.07c47.82,0 78.03,31.88 81.39,87.26l-169.5 0c5.04,-53.7 39.44,-87.26 88.11,-87.26zm701.46 -70.49l-120.83 0 0 221.52c0,52.02 -26.85,80.55 -73.83,80.55 -47.83,0 -73,-28.53 -73,-80.55l0 -221.52 -120.83 0 0 219.84c0,77.2 15.94,117.47 59.58,149.36 37.76,25.17 83.9,38.6 134.25,38.6 83.06,0 153.54,-36.92 178.71,-93.14 10.91,-21.82 15.95,-52.86 15.95,-94.82l0 -219.84zm95.66 99.02l45.31 -0.84 0 297.87 119.98 0 0 -297.87 74.68 0.84 0 -99.02 -74.68 0 0 -133.41 -119.98 0 0 133.41 -45.31 0 0 99.02zm278.58 222.35c25.17,59.58 78.03,89.78 153.55,89.78 91.46,0 156.91,-57.05 156.91,-136.77 0,-54.54 -31.05,-93.97 -88.11,-114.95l-16.78 -6.71 -22.66 -7.55c-26.85,-10.07 -32.72,-14.27 -39.43,-20.14 -4.2,-5.88 -6.71,-12.59 -6.71,-20.14 0,-20.14 15.1,-35.24 35.24,-35.24 18.46,0 35.24,12.58 44.47,33.56l88.1 -41.11c-27.69,-53.7 -74.68,-80.56 -139.29,-80.56 -83.9,0 -146,55.38 -146,131.74 0,32.72 10.91,59.57 32.73,82.23 18.46,17.62 31.88,25.17 79.71,43.63l20.98 8.39c30.2,10.91 41.11,20.98 41.11,36.08 0,20.98 -19.3,36.08 -43.63,36.08 -26.85,0 -50.34,-17.62 -60.41,-46.15l-89.78 47.83zm709.02 -316.33c-31.88,-13.43 -64.6,-20.14 -98.17,-20.14 -120.83,0 -212.28,93.98 -212.28,217.32 0,122.51 87.26,206.42 213.12,206.42 33.56,0 59.58,-4.2 96.5,-16.79l0 -119.98c-26.02,22.65 -51.19,32.72 -82.23,32.72 -58.74,0 -99.85,-42.79 -99.85,-103.21 0,-62.93 41.95,-106.56 102.36,-106.56 34.41,0 60.42,11.75 80.55,36.08l0 -125.86zm107.41 391.01l120.83 0 0 -212.29c0,-57.89 29.37,-93.97 78.87,-93.97 30.21,0 57.06,17.62 63.77,44.47 5.04,12.58 5.88,28.53 5.88,53.7l0 208.09 120.82 0 0 -260.95c0,-90.62 -52.86,-148.52 -138.44,-148.52 -55.38,0 -104.05,27.69 -132.58,74.68l0 -349.06 -119.15 0 0 683.85zm917.11 -169.49c0,-156.07 -72.16,-243.34 -201.38,-243.34 -122.5,0 -210.6,90.62 -210.6,216.49 0,127.54 85.58,210.6 215.64,210.6 83.91,0 149.35,-37.75 185.44,-106.56l-94.82 -42.79c-24.33,41.11 -51.18,57.06 -91.46,57.06 -55.38,0 -90.62,-34.41 -94.82,-91.46l292 0zm-203.05 -156.07c47.82,0 78.03,31.88 81.39,87.26l-169.5 0c5.04,-53.7 39.44,-87.26 88.11,-87.26zm312.97 325.56l119.99 0 0 -191.31c0,-42.79 5.87,-62.93 25.17,-79.71 15.11,-15.11 37.76,-22.66 63.77,-22.66 14.27,0 24.34,1.68 40.28,7.55l0 -119.98 -8.39 0c-56.22,0 -98.17,24.33 -120.83,70.48l0 -60.42 -119.99 0 0 396.05zm438.84 0l135.09 0 43.63 -118.31 244.17 0 43.63 118.31 135.1 0 -231.59 -604.98 -138.45 0 -231.58 604.98zm276.05 -383.46c10.91,-30.21 11.75,-32.72 13.43,-40.28 5.03,-19.29 8.39,-33.56 11.75,-66.28 2.51,32.72 5.03,46.99 10.9,66.28 1.68,7.56 3.36,11.75 13.43,40.28l57.06 166.98 -163.62 0 57.05 -166.98zm385.14 383.46l119.98 0 0 -200.54c0,-37.76 3.36,-57.06 11.75,-70.48 10.91,-17.62 33.56,-28.53 56.22,-28.53 37.75,0 60.41,27.69 60.41,75.52l0 224.03 119.15 0 0 -222.36c0,-50.34 22.65,-78.87 63.77,-78.87 20.98,0 40.28,10.07 50.34,25.17 10.07,15.95 12.59,31.05 12.59,73.84l0 202.22 119.99 0 0 -250.05c0,-46.98 -5.87,-73 -20.14,-97.33 -22.65,-36.08 -64.61,-58.73 -111.6,-58.73 -54.54,0 -97.33,26.01 -128.38,79.71 -19.29,-51.19 -60.41,-78.88 -116.63,-78.88 -50.34,0 -93.14,24.34 -120.83,67.97l0.84 -58.74 -117.46 0 0 396.05zm1049.68 -338.15c-24.33,-43.63 -75.51,-69.64 -132.57,-69.64 -106.56,0 -188.79,92.3 -188.79,213.12 0,119.15 78.03,203.9 187.95,203.9 62.09,0 110.76,-25.17 133.41,-72.16l0 62.93 118.31 0 0 -396.05 -118.31 0 0 57.9zm-99.01 31.89c57.9,0 101.53,46.15 101.53,106.56 0,61.25 -43.63,106.56 -101.53,106.56 -58.73,0 -99.85,-43.63 -99.85,-105.72 0,-61.25 42.79,-107.4 99.85,-107.4zm313.83 9.23l45.31 -0.84 0 297.87 119.98 0 0 -297.87 74.68 0.84 0 -99.02 -74.68 0 0 -133.41 -119.98 0 0 133.41 -45.31 0 0 99.02zm709.01 127.54c0,-156.07 -72.16,-243.34 -201.37,-243.34 -122.5,0 -210.6,90.62 -210.6,216.49 0,127.54 85.58,210.6 215.64,210.6 83.9,0 149.34,-37.75 185.43,-106.56l-94.82 -42.79c-24.33,41.11 -51.18,57.06 -91.45,57.06 -55.38,0 -90.62,-34.41 -94.82,-91.46l291.99 0zm-203.04 -156.07c47.81,0 78.02,31.88 81.38,87.26l-169.49 0c5.04,-53.7 39.44,-87.26 88.11,-87.26zm701.46 -70.49l-120.83 0 0 221.52c0,52.02 -26.85,80.55 -73.84,80.55 -47.83,0 -73,-28.53 -73,-80.55l0 -221.52 -120.83 0 0 219.84c0,77.2 15.94,117.47 59.58,149.36 37.76,25.17 83.9,38.6 134.25,38.6 83.07,0 153.55,-36.92 178.72,-93.14 10.91,-21.82 15.95,-52.86 15.95,-94.82l0 -219.84zm135.09 396.05l119.99 0 0 -191.31c0,-42.79 5.87,-62.93 25.17,-79.71 15.11,-15.11 37.76,-22.66 63.77,-22.66 14.27,0 24.34,1.68 40.28,7.55l0 -119.98 -8.39 0c-56.22,0 -98.17,24.33 -120.83,70.48l0 -60.42 -119.99 0 0 396.05zm292 -142.64l267.67 0 0 -106.57 -267.67 0 0 106.57zm375.07 142.64l125.03 0 0 -198.02c0,-33.57 0,-36.92 -4.2,-62.93 11.75,21.81 24.33,41.95 31.88,52.86l138.45 208.09 158.58 0 -186.27 -249.21c93.97,-24.33 140.96,-83.9 140.96,-177.88 0,-112.44 -79.71,-177.89 -217.31,-177.89l-187.12 0 0 604.98zm124.19 -494.22l66.28 0c27.69,0 37.76,2.52 52.87,14.27 17.62,15.1 26.01,34.4 26.01,62.09 0,57.06 -39.44,92.3 -102.37,92.3l-42.79 0 0 -168.66zm703.97 156.07c-24.33,-43.63 -75.51,-69.64 -132.57,-69.64 -106.56,0 -188.79,92.3 -188.79,213.12 0,119.15 78.03,203.9 187.95,203.9 62.09,0 110.76,-25.17 133.41,-72.16l0 62.93 118.31 0 0 -396.05 -118.31 0 0 57.9zm-99.01 31.89c57.9,0 101.53,46.15 101.53,106.56 0,61.25 -43.63,106.56 -101.53,106.56 -58.73,0 -99.85,-43.63 -99.85,-105.72 0,-61.25 42.79,-107.4 99.85,-107.4zm652.81 -41.12c-29.36,-40.27 -74.67,-62.09 -129.21,-62.09 -108.25,0 -191.31,93.14 -191.31,211.45 0,117.47 79.71,206.41 185.43,206.41 48.67,0 95.66,-19.3 123.35,-49.5 5.03,-5.88 7.55,-10.07 14.26,-20.98l0 62.09 116.63 0 0 -683.85 -119.15 0 0 336.47zm-94.81 41.12c57.06,0 99.85,45.31 99.85,105.72 0,62.09 -42.79,107.4 -100.69,107.4 -58.74,0 -100.69,-44.47 -100.69,-106.56 0,-59.58 44.47,-106.56 101.53,-106.56zm351.58 306.26l120.83 0 0 -396.05 -120.83 0 0 396.05zm-14.26 -527.78c0,40.27 33.56,73 74.67,73 41.12,0 74.68,-32.73 74.68,-73 0,-40.28 -33.56,-73 -74.68,-73 -41.11,0 -74.67,32.72 -74.67,73zm252.57 330.6c0,119.98 96.49,212.28 220.66,212.28 124.19,0 219,-92.3 219,-213.12 0,-121.67 -95.65,-213.97 -222.35,-213.97 -121.66,0 -217.31,93.98 -217.31,214.81zm220.66 -104.89c57.06,0 100.69,45.31 100.69,104.05 0,59.57 -43.63,104.88 -99.85,104.88 -57.88,0 -102.36,-46.15 -102.36,-104.88 0,-57.9 44.48,-104.05 101.52,-104.05zm306.27 159.43l267.67 0 0 -106.57 -267.67 0 0 106.57zm812.23 -441.36l-2.51 -0.84 -12.59 -5.87c-46.99,-18.46 -78.87,-25.17 -123.35,-25.17 -181.24,0 -319.68,136.77 -319.68,315.49 0,175.37 137.6,312.98 312.13,312.98 30.21,0 57.9,-3.36 83.91,-11.75 1.68,-0.84 2.52,-0.84 3.36,-0.84l42.79 -15.1 15.1 -5.88 0 -142.64c-11.74,10.91 -17.62,15.94 -27.69,21.82 -33.56,21.81 -72.16,33.56 -112.43,33.56 -104.89,0 -185.44,-83.07 -185.44,-193.83 0,-109.08 78.87,-191.31 182.92,-191.31 41.12,0 81.39,12.59 116.63,36.08 8.39,6.71 14.27,10.91 26.85,22.66l0 -149.36zm104.89 584l119.99 0 0 -683.85 -119.99 0 0 683.85zm643.57 -396.05l-120.83 0 0 221.52c0,52.02 -26.84,80.55 -73.83,80.55 -47.83,0 -73,-28.53 -73,-80.55l0 -221.52 -120.83 0 0 219.84c0,77.2 15.94,117.47 59.58,149.36 37.76,25.17 83.9,38.6 134.25,38.6 83.06,0 153.54,-36.92 178.71,-93.14 10.91,-21.82 15.95,-52.86 15.95,-94.82l0 -219.84zm135.09 396.05l116.63 0 0 -63.77c20.14,43.63 75.52,73.84 133.42,73.84 109.08,0 189.63,-88.1 189.63,-208.93 0,-119.15 -83.07,-212.29 -191.31,-212.29 -56.22,0 -106.56,28.53 -128.38,70.48l0.84 -343.18 -120.83 0 0 683.85zm213.97 -306.26c57.89,0 100.69,45.31 100.69,105.72 0,62.09 -43.63,107.4 -101.53,107.4 -57.9,0 -99.01,-44.47 -99.01,-105.72 0,-60.42 42.79,-107.4 99.85,-107.4zm926.34 136.77c0,-156.07 -72.16,-243.34 -201.38,-243.34 -122.5,0 -210.6,90.62 -210.6,216.49 0,127.54 85.58,210.6 215.64,210.6 83.91,0 149.35,-37.75 185.44,-106.56l-94.82 -42.79c-24.33,41.11 -51.18,57.06 -91.46,57.06 -55.38,0 -90.62,-34.41 -94.82,-91.46l292 0zm-203.05 -156.07c47.82,0 78.03,31.88 81.39,87.26l-169.5 0c5.04,-53.7 39.44,-87.26 88.11,-87.26zm284.44 258.43c0,43.64 36.92,78.88 81.39,78.88 44.48,0 80.56,-35.24 80.56,-78.88 0,-43.63 -36.08,-78.87 -80.56,-78.87 -44.47,0 -81.39,35.24 -81.39,78.87zm187.12 -537.85l231.58 604.98 120.83 0 232.42 -604.98 -135.09 0 -135.09 365c-3.36,8.39 -6.72,19.3 -10.07,31.89 -6.71,25.17 -8.39,37.76 -11.75,72.16 -5.03,-34.4 -6.71,-46.99 -12.58,-72.16 -4.2,-12.59 -6.72,-23.5 -10.07,-31.89l-135.1 -365 -135.08 0zm609.16 537.85c0,43.64 36.92,78.88 81.39,78.88 44.48,0 80.56,-35.24 80.56,-78.88 0,-43.63 -36.08,-78.87 -80.56,-78.87 -44.47,0 -81.39,35.24 -81.39,78.87z"/>
 </g>
</svg>
