<?xml version="1.0" encoding="UTF-8" standalone="no"?>
<svg
   viewBox="0 0 68 68"
   version="1.1"
   id="svg3"
   sodipodi:docname="rus-logo.svg"
   width="68"
   height="68"
   inkscape:version="1.3.2 (091e20e, 2023-11-25)"
   xmlns:inkscape="http://www.inkscape.org/namespaces/inkscape"
   xmlns:sodipodi="http://sodipodi.sourceforge.net/DTD/sodipodi-0.dtd"
   xmlns="http://www.w3.org/2000/svg"
   xmlns:svg="http://www.w3.org/2000/svg">
  <defs
     id="defs3" />
  <sodipodi:namedview
     id="namedview3"
     pagecolor="#ffffff"
     bordercolor="#000000"
     borderopacity="0.25"
     inkscape:showpageshadow="2"
     inkscape:pageopacity="0.0"
     inkscape:pagecheckerboard="0"
     inkscape:deskcolor="#d1d1d1"
     inkscape:zoom="0.8973384"
     inkscape:cx="22.288136"
     inkscape:cy="42.904661"
     inkscape:window-width="1392"
     inkscape:window-height="1212"
     inkscape:window-x="2240"
     inkscape:window-y="25"
     inkscape:window-maximized="0"
     inkscape:current-layer="svg3" />
  <path
     fill="#b5b9bc"
     d="M 34,0 0,34 34,68 68,34 Z M 62.6,34 48.8,47.8 c 0.3,-0.7 0.5,-1.5 0.5,-2.3 0,-2.6 -1.8,-4.9 -5.3,-5.6 l -2.5,-0.5 c -1.3,-0.2 -1.8,-0.9 -1.8,-1.8 0,-1 1,-2 2.5,-2 2.2,0 2.9,1.4 3.1,2.2 l 3.6,-1.5 c -0.6,-2.1 -2.4,-4.4 -6.6,-4.4 -1.6,0 -3,0.5 -4.2,1.3 1.4,-1.9 2.9,-3.8 4.5,-5.4 4.7,-4.7 7.3,-6.1 7.9,-6.3 z M 47.4,18.8 c -0.5,0.3 -3.2,1.7 -7.9,6.3 -2.4,2.4 -4.5,5.4 -6.6,8.4 l -2.3,-4.7 c 1.9,-1.1 2.7,-3.2 2.7,-5.2 0,-3.3 -2.3,-5.8 -6,-5.8 H 21.6 L 34,5.4 Z m -18.3,4.9 c 0,1.3 -0.9,2.2 -2.6,2.2 h -2.4 v -4.5 h 2.4 c 1.7,0 2.6,0.9 2.6,2.3 z M 5.4,34 19.9,19.5 V 36.4 H 24 v -6.9 h 2.5 l 3.7,7.7 c -1.1,1.4 -2.2,2.7 -3.4,3.9 -4.7,4.7 -7.5,6.1 -8,6.3 z m 16.4,16.3 c 0.4,-0.2 3.3,-1.6 8,-6.3 2.3,-2.3 4.2,-4.9 6.1,-7.5 -0.1,0.5 -0.2,1 -0.2,1.6 0,2.7 1.9,4.8 5,5.4 l 2.5,0.5 c 1.2,0.2 2,0.9 2,1.9 0,1.1 -1,1.9 -2.6,1.9 -2.5,0 -3.6,-1.4 -3.8,-3.1 l -3.7,1.5 c 0.6,2.5 2.8,5.2 7.4,5.2 1.4,0 2.5,-0.3 3.5,-0.8 L 34.1,62.5 Z"
     id="path1" />
</svg>
