<svg width="164.98" height="195.26" version="1.1" viewBox="0 0 164.98 195.26" xml:space="preserve" xmlns="http://www.w3.org/2000/svg"><g transform="matrix(0 1.3333 1.3333 0 -18.027 17.009)"><g transform="matrix(0 .087301 -.087301 0 134.14 13.301)"><path d="m581.34 340.63h-251.7v1006.5h251.7v335.46h-578.82v-1677.5h578.82c432.67 0 789.28 327.91 833.76 749.05h-338.42c-42.5-235.17-248.08-413.54-495.34-413.54" fill="#00adef"/><g fill="#b2e6fa"><path d="m1352.7 849.82h67.13c-3.03 430.22-329.75 783.26-748.59 828v-67.67c381.13-44.33 678.43-368.01 681.46-760.33"/><path d="m1218.5 849.82h67.13c-3.04 355.26-270.4 648.79-614.38 692.73v-67.69c307.07-43.41 544.29-306.63 547.25-625.04"/><path d="m671.25 1407v-68.15c233.2-41.89 410.12-244.54 413-489.07h67.11c-2.93 281.29-209.94 514.45-480.11 557.22"/></g></g></g></svg>
